<svg xmlns="http://www.w3.org/2000/svg" width="60" height="60" viewBox="0 0 60 60">
  <g id="Group_14" data-name="Group 14" transform="translate(-1656 -3163)">
    <g id="Group_13" data-name="Group 13" transform="translate(1676.167 3188.447)">
      <path id="Path_8" data-name="Path 8" d="M.443,9.106,5,4.553.443,0,0,.443l4.11,4.11L0,8.663Z" transform="translate(13.838)" fill="none" stroke="#000" stroke-width="1"/>
      <line id="Line_1" data-name="Line 1" x1="17.833" transform="translate(0 4.648)" fill="none" stroke="#000" stroke-width="1.8"/>
    </g>
    <g id="Path_10" data-name="Path 10" transform="translate(1656 3163)" fill="none">
      <path d="M30,0A30,30,0,1,1,0,30,30,30,0,0,1,30,0Z" stroke="none"/>
      <path d="M 30 2 C 26.21913909912109 2 22.55244064331055 2.740039825439453 19.10174942016602 4.199558258056641 C 15.76776885986328 5.609710693359375 12.77312850952148 7.628890991210938 10.20101165771484 10.20101165771484 C 7.628890991210938 12.77312850952148 5.609710693359375 15.76776885986328 4.199558258056641 19.10174942016602 C 2.740039825439453 22.55244064331055 2 26.21913909912109 2 30 C 2 33.78086090087891 2.740039825439453 37.44755935668945 4.199558258056641 40.89825057983398 C 5.609710693359375 44.23223114013672 7.628890991210938 47.22686767578125 10.20101165771484 49.79898834228516 C 12.77312850952148 52.37110900878906 15.76776885986328 54.39028930664062 19.10174942016602 55.80043792724609 C 22.55244064331055 57.25996017456055 26.21913909912109 58 30 58 C 33.78086090087891 58 37.44755935668945 57.25996017456055 40.89825057983398 55.80043792724609 C 44.23223114013672 54.39028930664062 47.22686767578125 52.37110900878906 49.79898834228516 49.79898834228516 C 52.37110900878906 47.22686767578125 54.39028930664062 44.23223114013672 55.80043792724609 40.89825057983398 C 57.25996017456055 37.44755935668945 58 33.78086090087891 58 30 C 58 26.21913909912109 57.25996017456055 22.55244064331055 55.80043792724609 19.10174942016602 C 54.39028930664062 15.76776885986328 52.37110900878906 12.77312850952148 49.79898834228516 10.20101165771484 C 47.22686767578125 7.628890991210938 44.23223114013672 5.609710693359375 40.89825057983398 4.199558258056641 C 37.44755935668945 2.740039825439453 33.78086090087891 2 30 2 M 30 0 C 46.56853866577148 0 60 13.43146133422852 60 30 C 60 46.56853866577148 46.56853866577148 60 30 60 C 13.43146133422852 60 0 46.56853866577148 0 30 C 0 13.43146133422852 13.43146133422852 0 30 0 Z" stroke="none" fill="#000"/>
    </g>
  </g>
</svg>
