<svg xmlns="http://www.w3.org/2000/svg" width="31.076" height="30" viewBox="0 0 31.076 30">
  <g id="Group_8943" data-name="Group 8943" transform="translate(-88.704 -44)">
    <path id="Union_1" data-name="Union 1" d="M5.927,25.19,0,26.606l2.371-5.343A14.005,14.005,0,1,1,5.927,25.19Z" transform="translate(90.438 45)" fill="none" stroke="#000" stroke-miterlimit="10" stroke-width="2"/>
    <path id="Path_1" data-name="Path 1" d="M24.652,22.826a1.826,1.826,0,1,0-1.826,1.826,1.826,1.826,0,0,0,1.826-1.826" transform="translate(81.954 36.174)"/>
    <path id="Path_2" data-name="Path 2" d="M14.652,22.826a1.826,1.826,0,1,0-1.826,1.826,1.826,1.826,0,0,0,1.826-1.826" transform="translate(85.867 36.174)"/>
    <path id="Path_3" data-name="Path 3" d="M34.652,22.826a1.826,1.826,0,1,0-1.826,1.826,1.826,1.826,0,0,0,1.826-1.826" transform="translate(78.041 36.174)"/>
  </g>
</svg>
