<svg xmlns="http://www.w3.org/2000/svg" width="37.227" height="27.213" viewBox="0 0 37.227 27.213">
  <g id="Group_20" data-name="Group 20" transform="translate(-1017.897 -2446.568)">
    <path id="Path_11" data-name="Path 11" d="M36.484,10.411,30.045,6.618V3.832a1.092,1.092,0,0,0-2.185,0v1.5L19.065.151a1.092,1.092,0,0,0-1.109,0L.538,10.411a1.092,1.092,0,1,0,1.109,1.882L18.511,2.36l16.864,9.933a1.092,1.092,0,1,0,1.109-1.882" transform="translate(1018 2446.682)" stroke="#fff" stroke-width="0.2"/>
    <path id="Path_12" data-name="Path 12" d="M46.828,48.348H21.769a1.092,1.092,0,0,0-1.093,1.092V62.825a1.092,1.092,0,0,0,1.093,1.092h5.885a1.092,1.092,0,0,0,1.092-1.092V55.9h3.44v6.929a1.092,1.092,0,0,0,1.092,1.092h13.55a1.092,1.092,0,0,0,1.092-1.092V49.44a1.092,1.092,0,0,0-1.092-1.092M45.736,61.732H34.37V54.8a1.092,1.092,0,0,0-1.092-1.092H27.654A1.092,1.092,0,0,0,26.561,54.8v6.929h-3.7v-11.2H45.736Z" transform="translate(1002.213 2409.765)" stroke="#fff" stroke-width="0.2"/>
    <path id="Path_13" data-name="Path 13" d="M102.065,76.508a1.092,1.092,0,0,0,1.092-1.092V72.123a1.092,1.092,0,0,0-2.185,0v3.293a1.092,1.092,0,0,0,1.092,1.092" transform="translate(940.9 2392.445)" stroke="#fff" stroke-width="0.2"/>
  </g>
</svg>
