<svg xmlns="http://www.w3.org/2000/svg" width="35.425" height="35.424" viewBox="0 0 35.425 35.424">
  <path id="Forma_1" data-name="Forma 1" d="M958.878,4827.936h-.009a17.7,17.7,0,0,0-14.336,28.093l-2.207,6.581,6.808-2.176a17.709,17.709,0,1,0,9.744-32.5Zm10.306,25.012c-.427,1.207-2.123,2.207-3.476,2.5-.926.2-2.135.354-6.2-1.333-5.205-2.156-8.558-7.446-8.819-7.79a10.114,10.114,0,0,1-2.1-5.343,5.652,5.652,0,0,1,1.811-4.31,2.573,2.573,0,0,1,1.811-.636c.219,0,.416.012.593.021.52.022.782.053,1.125.874.427,1.03,1.468,3.571,1.592,3.832a1.057,1.057,0,0,1,.075.959,3.071,3.071,0,0,1-.573.814c-.262.3-.509.531-.771.855-.239.28-.509.581-.208,1.1a15.69,15.69,0,0,0,2.874,3.572,12.992,12.992,0,0,0,4.154,2.562,1.118,1.118,0,0,0,1.248-.2,21.3,21.3,0,0,0,1.384-1.833.988.988,0,0,1,1.271-.385c.478.166,3.009,1.417,3.529,1.676s.864.384.99.6A4.416,4.416,0,0,1,969.184,4852.948Z" transform="translate(-941.161 -4827.936)" fill="#fff"/>
</svg>
