<svg xmlns="http://www.w3.org/2000/svg" xmlns:xlink="http://www.w3.org/1999/xlink" width="264" height="264" viewBox="0 0 264 264">
  <defs>
    <linearGradient id="linear-gradient" x1="1.052" x2="0.124" y2="1" gradientUnits="objectBoundingBox">
      <stop offset="0" stop-color="#93ff00"/>
      <stop offset="0.577" stop-color="#a0f3bd"/>
      <stop offset="1" stop-color="#84ffe4"/>
    </linearGradient>
  </defs>
  <g id="Group_9036" data-name="Group 9036" transform="translate(-1485 -5214)">
    <circle id="Ellipse_1766" data-name="Ellipse 1766" cx="132" cy="132" r="132" transform="translate(1485 5214)" fill="#fefefe"/>
    <path id="Path_23312" data-name="Path 23312" d="M4.657-5.553H8.542V0H-7.5V-5.553h4.756V-20.868H-7.1v-5.553a17.02,17.02,0,0,0,2.9-.187,3.108,3.108,0,0,0,1.631-.784,5.761,5.761,0,0,0,1.32-3.437h5.9Z" transform="translate(1623 5270)" fill="#90ff00"/>
    <path id="Union_7" data-name="Union 7" d="M14503.548,18083.271a70.978,70.978,0,0,1-15.123-7.947,134.744,134.744,0,0,1-34.779-35.865,70.764,70.764,0,0,1-7.479-15.357,22.955,22.955,0,0,1,5.818-23.711l6.264-6.072a9.165,9.165,0,0,1,12.953.2l11.882,12.25a5.641,5.641,0,0,1-.127,7.975l-8.061,7.82a5.7,5.7,0,0,0-.862,7.09,89.995,89.995,0,0,0,24.817,25.592,5.7,5.7,0,0,0,7.116-.645l8.061-7.818a5.651,5.651,0,0,1,7.979.121l11.882,12.25a9.167,9.167,0,0,1-.2,12.959l-6.264,6.072a22.971,22.971,0,0,1-11.206,5.977,22.718,22.718,0,0,1-4.793.51A23,23,0,0,1,14503.548,18083.271Zm-43.031-86.611-6.263,6.068a19.71,19.71,0,0,0-4.993,20.342,67.608,67.608,0,0,0,7.14,14.646,131.673,131.673,0,0,0,33.854,34.9,67.569,67.569,0,0,0,14.415,7.588,19.715,19.715,0,0,0,20.487-4.365l6.259-6.072a5.9,5.9,0,0,0,.132-8.344l-11.882-12.254a2.384,2.384,0,0,0-3.363-.049l-8.065,7.82a8.945,8.945,0,0,1-11.2,1.012,93.168,93.168,0,0,1-25.766-26.57,8.934,8.934,0,0,1,1.356-11.164l8.061-7.82a2.38,2.38,0,0,0,.055-3.363l-11.882-12.25a5.9,5.9,0,0,0-8.343-.127Zm32.3,40.453a1.633,1.633,0,0,1-.39-1.693l5.51-15.775a30.748,30.748,0,1,1,12.44,12.264l-15.867,5.59a1.593,1.593,0,0,1-.545.092A1.614,1.614,0,0,1,14492.818,18037.113Zm12.6-51.795a27.505,27.505,0,0,0-4.294,33.336,1.643,1.643,0,0,1,.132,1.365l-4.634,13.277,13.356-4.707a1.641,1.641,0,0,1,1.344.117,27.506,27.506,0,1,0-5.9-43.389Zm29.287,19.447a3.059,3.059,0,1,1,3.06,3.059A3.064,3.064,0,0,1,14534.71,18004.766Zm-12.9,0a3.059,3.059,0,1,1,3.059,3.059A3.061,3.061,0,0,1,14521.812,18004.766Zm-12.9,0a3.059,3.059,0,1,1,3.059,3.059A3.061,3.061,0,0,1,14508.908,18004.766Z" transform="translate(-12887 -12679)" fill="url(#linear-gradient)"/>
  </g>
</svg>
