<svg xmlns="http://www.w3.org/2000/svg" xmlns:xlink="http://www.w3.org/1999/xlink" width="264" height="264" viewBox="0 0 264 264">
  <defs>
    <linearGradient id="linear-gradient" x1="0.5" x2="0.5" y2="1" gradientUnits="objectBoundingBox">
      <stop offset="0" stop-color="#93ff00"/>
      <stop offset="0.577" stop-color="#a0f3bd"/>
      <stop offset="1" stop-color="#84ffe4"/>
    </linearGradient>
    <clipPath id="clip-path">
      <rect id="Rectangle_2037" data-name="Rectangle 2037" width="108.185" height="106.434" fill="url(#linear-gradient)"/>
    </clipPath>
  </defs>
  <g id="Group_9039" data-name="Group 9039" transform="translate(-174 -5214)">
    <circle id="Ellipse_1769" data-name="Ellipse 1769" cx="132" cy="132" r="132" transform="translate(174 5214)" fill="#fefefe"/>
    <path id="Path_23315" data-name="Path 23315" d="M11.791-10.957v5.528H8.629V0H1.83V-5.429H-11.816V-8.268L-3.1-30.829H4.1L-3.4-10.957H1.83v-6.749h6.8v6.749Z" transform="translate(301.816 5270)" fill="#90ff00"/>
    <g id="Group_8559" data-name="Group 8559" transform="translate(256.406 5301.003)">
      <g id="Group_8558" data-name="Group 8558" transform="translate(0 -0.003)" clip-path="url(#clip-path)">
        <path id="Path_23306" data-name="Path 23306" d="M107.341,84.87c-.485-2.451-.986-4.986-2.656-6.822a9.33,9.33,0,0,0-3.951-2.33,65.405,65.405,0,0,0-6.476-1.79A55.321,55.321,0,0,1,87.166,71.9l-.011,0a21.287,21.287,0,0,1-3.914-1.968,39.91,39.91,0,0,1-4.757-3.859c-.713-.641-1.451-1.3-2.194-1.93A49.418,49.418,0,0,0,53.908,53.58V24.217a8.738,8.738,0,0,0-8.729-8.729H22.086a8.735,8.735,0,0,0-8.721,8.729v41.92H9.5a7.159,7.159,0,0,1-7.151-7.151V9.493A7.159,7.159,0,0,1,9.5,2.342H74.66a7.159,7.159,0,0,1,7.15,7.15V19.667a16.931,16.931,0,0,0-6.369,1.6,10.618,10.618,0,0,0-5.936,9.644V42a.922.922,0,0,0,.922.922H75.69v9.762a.922.922,0,0,0,1.844,0V42.927h10.4v9.762a.922.922,0,1,0,1.844,0V42.927H95.04A.922.922,0,0,0,95.962,42V30.928a10.743,10.743,0,0,0-6.476-9.9,16.975,16.975,0,0,0-5.831-1.357V9.493A9.005,9.005,0,0,0,74.66.5H9.5a9.005,9.005,0,0,0-9,8.995V58.986a9.005,9.005,0,0,0,9,9h3.87v24.93A19.641,19.641,0,0,0,7.46,105.942a.922.922,0,0,0,.922.922H58.891a.922.922,0,0,0,.922-.922A18.844,18.844,0,0,0,57.864,98.4Q65.55,98.4,73.227,98.4a12.551,12.551,0,0,0,23.736,0h2.875a22.814,22.814,0,0,0,2.643-.124,7.248,7.248,0,0,0,4.223-1.823c2.838-2.723,1.886-6.395,1.121-9.344-.183-.7-.329-1.448-.485-2.235M94.118,30.928V41.082H88.884l-.024,0-.024,0h-12.2l-.024,0-.024,0H71.35V30.911a8.767,8.767,0,0,1,4.877-7.975,15.142,15.142,0,0,1,6.491-1.45h.028a15.183,15.183,0,0,1,6.011,1.233,8.9,8.9,0,0,1,5.359,8.209M15.21,67.089c0-.01,0-.02,0-.03s0-.02,0-.03v-15.6c3.9,7.617,10.44,15.052,18.427,15.052S48.16,59.041,52.064,51.425V92.377H15.21Zm6.877-49.756H45.18a6.892,6.892,0,0,1,6.884,6.884V46.986c-3.281,8.178-10.042,17.645-18.427,17.645S18.49,55.164,15.21,46.986V24.217a6.888,6.888,0,0,1,6.877-6.884M9.372,105.019a18.212,18.212,0,0,1,5.286-10.8H52.615a18.3,18.3,0,0,1,5.283,10.8Zm75.723,0A10.725,10.725,0,1,1,95.819,94.294a10.737,10.737,0,0,1-10.725,10.725m20.339-9.907a5.4,5.4,0,0,1-3.176,1.33,21.168,21.168,0,0,1-2.42.11H97.45a12.569,12.569,0,1,0-24.71,0q-7.943,0-15.892.006a19.669,19.669,0,0,0-2.939-3.647V55.463A47.485,47.485,0,0,1,75.1,65.545c.723.609,1.449,1.261,2.151,1.893a41.316,41.316,0,0,0,4.988,4.035c.423.274.854.526,1.288.764-6.308.724-20.4,1.977-26.9-.354a.922.922,0,0,0-.623,1.736c3.055,1.1,7.557,1.46,12.187,1.46A148.762,148.762,0,0,0,86.735,73.7a58.751,58.751,0,0,0,7.093,2.026,64.036,64.036,0,0,1,6.3,1.738,7.562,7.562,0,0,1,3.2,1.834c1.321,1.452,1.772,3.73,2.207,5.934.154.778.313,1.583.509,2.34.744,2.867,1.446,5.575-.606,7.545m-20.339-7.27a6.452,6.452,0,1,0,6.452,6.453,6.46,6.46,0,0,0-6.452-6.453m0,11.06A4.608,4.608,0,1,1,89.7,94.295,4.613,4.613,0,0,1,85.095,98.9M25.447,42.653h4.417l-2.786,13.27a.922.922,0,0,0,1.644.738L42.569,37.934a.922.922,0,0,0-.742-1.47H37.4l2.8-13.329a.922.922,0,0,0-1.645-.737L24.7,41.183a.922.922,0,0,0,.742,1.47M37.52,26.9,35.361,37.2a.923.923,0,0,0,.9,1.112H40L29.751,52.166,31.9,41.92a.922.922,0,0,0-.9-1.112H27.272Z" transform="translate(-0.466 -0.464)" fill="url(#linear-gradient)"/>
        <path id="Path_23307" data-name="Path 23307" d="M84.628,106.432a12.614,12.614,0,0,1-11.892-8.467c-4.572,0-9.958,0-15.284.005a18.921,18.921,0,0,1,1.929,7.506.957.957,0,0,1-.956.956H7.916a.957.957,0,0,1-.956-.956A19.666,19.666,0,0,1,12.865,92.43V67.549H9.029A9.039,9.039,0,0,1,0,58.52V9.027A9.039,9.039,0,0,1,9.029,0H74.194a9.039,9.039,0,0,1,9.029,9.029V19.169a17.029,17.029,0,0,1,5.811,1.358,10.777,10.777,0,0,1,6.5,9.935V41.539a.957.957,0,0,1-.956.956H89.35v9.728a.956.956,0,1,1-1.912,0V42.495H77.1v9.728a.956.956,0,1,1-1.912,0V42.495H69.962a.957.957,0,0,1-.956-.956V30.445a10.652,10.652,0,0,1,5.955-9.674,16.982,16.982,0,0,1,6.35-1.6V9.027A7.124,7.124,0,0,0,74.194,1.91H9.029A7.125,7.125,0,0,0,1.912,9.027V58.52a7.125,7.125,0,0,0,7.117,7.117h3.836V23.751a8.769,8.769,0,0,1,8.755-8.762H44.713a8.772,8.772,0,0,1,8.762,8.762V53.087A49.456,49.456,0,0,1,75.845,63.644c.743.626,1.481,1.289,2.194,1.93a39.879,39.879,0,0,0,4.754,3.857A21.179,21.179,0,0,0,86.7,71.4l.011,0A55.1,55.1,0,0,0,93.8,73.429a65.4,65.4,0,0,1,6.48,1.791,9.358,9.358,0,0,1,3.965,2.339c1.677,1.842,2.179,4.382,2.664,6.838l0,.008c.155.784.3,1.524.483,2.225.767,2.958,1.722,6.64-1.131,9.377a7.287,7.287,0,0,1-4.242,1.832,22.836,22.836,0,0,1-2.648.125H96.521a12.615,12.615,0,0,1-11.892,8.467M72.76,97.9h.024l.008.023a12.517,12.517,0,0,0,23.672,0l.008-.023h2.9a22.782,22.782,0,0,0,2.639-.124,7.222,7.222,0,0,0,4.2-1.814c2.824-2.71,1.874-6.37,1.112-9.311-.182-.7-.329-1.444-.484-2.229l0-.008.033-.007-.033.007c-.484-2.447-.984-4.977-2.648-6.805a9.3,9.3,0,0,0-3.937-2.32A65.322,65.322,0,0,0,93.783,73.5a55.161,55.161,0,0,1-7.1-2.032l-.011,0a21.248,21.248,0,0,1-3.92-1.972,39.936,39.936,0,0,1-4.762-3.863c-.714-.641-1.451-1.3-2.193-1.929A49.4,49.4,0,0,0,53.435,53.147l-.027-.006V23.751a8.7,8.7,0,0,0-8.695-8.695H21.62a8.7,8.7,0,0,0-8.687,8.695V65.7h-3.9A7.193,7.193,0,0,1,1.845,58.52V9.027A7.192,7.192,0,0,1,9.029,1.842H74.194a7.192,7.192,0,0,1,7.184,7.184V19.233l-.032,0a16.917,16.917,0,0,0-6.356,1.6,10.584,10.584,0,0,0-5.916,9.613V41.539a.889.889,0,0,0,.888.888h5.3v9.8a.888.888,0,1,0,1.777,0v-9.8H87.505v9.8a.888.888,0,1,0,1.777,0v-9.8h5.292a.889.889,0,0,0,.888-.888V30.462a10.709,10.709,0,0,0-6.455-9.873,16.962,16.962,0,0,0-5.82-1.355l-.032,0V9.027A8.971,8.971,0,0,0,74.194.066H9.029A8.971,8.971,0,0,0,.068,9.027V58.52a8.971,8.971,0,0,0,8.961,8.961h3.9V92.459l-.01.01a19.59,19.59,0,0,0-5.9,13.007.889.889,0,0,0,.888.888H58.425a.889.889,0,0,0,.888-.888,18.859,18.859,0,0,0-1.946-7.525l-.024-.049H57.4c5.353,0,10.77-.005,15.362-.005m11.868,6.69A10.759,10.759,0,1,1,95.387,93.828a10.771,10.771,0,0,1-10.759,10.759m0-21.45A10.691,10.691,0,1,0,95.319,93.828,10.7,10.7,0,0,0,84.628,83.138m-27.158,21.45H8.868l0-.038a18.3,18.3,0,0,1,5.3-10.819l.01-.01H52.163l.01.01a18.383,18.383,0,0,1,5.293,10.818Zm-48.527-.068H57.395a18.316,18.316,0,0,0-5.259-10.73H14.206a18.236,18.236,0,0,0-5.262,10.73m75.685-4.2a6.486,6.486,0,1,1,6.486-6.486,6.493,6.493,0,0,1-6.486,6.486m0-12.9a6.419,6.419,0,1,0,6.418,6.419,6.426,6.426,0,0,0-6.418-6.419m0,11.06a4.642,4.642,0,1,1,4.642-4.641,4.647,4.647,0,0,1-4.642,4.641m0-9.216A4.574,4.574,0,1,0,89.2,93.829a4.579,4.579,0,0,0-4.574-4.574M56.363,96.126l-.01-.016a19.69,19.69,0,0,0-2.934-3.641l-.01-.01v-37.5l.041.009A47.538,47.538,0,0,1,74.655,65.053c.722.608,1.448,1.261,2.15,1.892a41.3,41.3,0,0,0,4.986,4.034c.39.252.81.5,1.286.763l.093.051-.106.012c-5.905.677-20.348,2-26.91-.355a.888.888,0,0,0-.6,1.673c2.7.967,6.793,1.458,12.175,1.458A148.309,148.309,0,0,0,86.264,73.2h.009l.008,0a59.2,59.2,0,0,0,7.089,2.025,64.053,64.053,0,0,1,6.3,1.739,7.59,7.59,0,0,1,3.213,1.843c1.328,1.459,1.779,3.742,2.215,5.95l0,.019c.153.771.31,1.569.5,2.319.746,2.877,1.451,5.594-.616,7.577h0a5.426,5.426,0,0,1-3.2,1.339,21.188,21.188,0,0,1-2.424.111H96.943l.007-.04a12.535,12.535,0,1,0-24.643,0l.007.04h-.041c-5.616,0-10.688,0-15.892.006Zm-2.887-3.7A19.758,19.758,0,0,1,56.4,96.058c5.186-.005,10.24-.006,15.833-.006a12.468,12.468,0,0,1-.207-2.224,12.6,12.6,0,0,1,25.206,0,12.469,12.469,0,0,1-.207,2.224h2.347a21.122,21.122,0,0,0,2.416-.11,5.363,5.363,0,0,0,3.157-1.32h0c2.038-1.955,1.338-4.654.6-7.511-.195-.752-.353-1.55-.506-2.323l0-.019c-.434-2.2-.883-4.472-2.2-5.918a7.529,7.529,0,0,0-3.185-1.824,63.964,63.964,0,0,0-6.293-1.736,59.331,59.331,0,0,1-7.089-2.024,148.355,148.355,0,0,1-18.535,1.383c-5.39,0-9.494-.492-12.2-1.462a.956.956,0,1,1,.646-1.8c6.51,2.336,20.809,1.044,26.774.364-.439-.244-.832-.478-1.2-.714A41.332,41.332,0,0,1,76.763,67c-.7-.633-1.43-1.285-2.151-1.893A47.456,47.456,0,0,0,53.476,55.039Zm-1.844-.486H14.71V66.622c0-.006,0-.012,0-.018a.048.048,0,0,0,0-.022c0-.006,0-.012,0-.018V50.818l.064.125c2.316,4.52,8.746,15.033,18.4,15.033s16.08-10.513,18.4-15.033l.064-.125Zm-36.854-.068H51.564V51.1a36.777,36.777,0,0,1-7.626,10.267c-3.446,3.1-7.069,4.678-10.767,4.678S25.85,64.47,22.4,61.366A36.772,36.772,0,0,1,14.778,51.1V66.563s0,.006,0,.009a.111.111,0,0,1,0,.042s0,.006,0,.009ZM33.171,64.2A12.426,12.426,0,0,1,27.2,62.588a20.73,20.73,0,0,1-5.181-4.156,39.378,39.378,0,0,1-7.306-11.9l0-.013V23.751a6.922,6.922,0,0,1,6.91-6.918H44.713a6.926,6.926,0,0,1,6.918,6.918V46.527l0,.006a39.376,39.376,0,0,1-7.306,11.9,20.732,20.732,0,0,1-5.181,4.156A12.426,12.426,0,0,1,33.171,64.2M14.778,46.514a39.3,39.3,0,0,0,7.291,11.873c3.492,3.759,7.331,5.745,11.1,5.745s7.611-1.987,11.1-5.745a39.307,39.307,0,0,0,7.291-11.873V23.751a6.858,6.858,0,0,0-6.85-6.85H21.62a6.854,6.854,0,0,0-6.843,6.85ZM27.513,56.6a.951.951,0,0,1-.391-.084.962.962,0,0,1-.544-1.069L29.355,42.22H24.98a.956.956,0,0,1-.77-1.523L38.058,21.911a.951.951,0,0,1,1.161-.305.962.962,0,0,1,.545,1.069L36.975,35.963h4.386a.956.956,0,0,1,.769,1.524L28.282,56.214a.96.96,0,0,1-.769.388M38.825,21.589a.883.883,0,0,0-.713.362L24.265,40.737a.888.888,0,0,0,.715,1.416h4.458L26.644,55.463a.894.894,0,0,0,.506.993.882.882,0,0,0,.363.078.892.892,0,0,0,.715-.36L42.075,37.447a.888.888,0,0,0-.714-1.416H36.891L39.7,22.661a.891.891,0,0,0-.872-1.072M29.22,51.845l2.183-10.4a.888.888,0,0,0-.869-1.071H26.739l10.38-14.083L34.928,36.737a.889.889,0,0,0,.87,1.071h3.8ZM26.873,40.308h3.66a.956.956,0,0,1,.936,1.153L29.35,51.555l10.115-13.68H35.8a.956.956,0,0,1-.936-1.153l2.128-10.139Zm66.812.342H76.138l-.016,0H70.85v-10.2a8.8,8.8,0,0,1,4.9-8.006,15.175,15.175,0,0,1,6.505-1.453h.028a15.217,15.217,0,0,1,6.025,1.235,8.934,8.934,0,0,1,5.38,8.24Zm-5.292-.07.017,0h5.207V30.462a8.866,8.866,0,0,0-5.339-8.178,15.15,15.15,0,0,0-6-1.23.076.076,0,0,1-.027,0A15.106,15.106,0,0,0,75.776,22.5a8.733,8.733,0,0,0-4.858,7.944V40.582h5.21a.125.125,0,0,1,.035,0H88.376l.017,0" transform="translate(0 0.002)" fill="url(#linear-gradient)"/>
      </g>
    </g>
  </g>
</svg>
