<svg xmlns="http://www.w3.org/2000/svg" xmlns:xlink="http://www.w3.org/1999/xlink" width="264" height="264" viewBox="0 0 264 264">
  <defs>
    <linearGradient id="linear-gradient" x1="1" y1="0.085" x2="0" y2="1.076" gradientUnits="objectBoundingBox">
      <stop offset="0" stop-color="#93ff00"/>
      <stop offset="0.577" stop-color="#a0f3bd"/>
      <stop offset="1" stop-color="#84ffe4"/>
    </linearGradient>
  </defs>
  <g id="Group_9037" data-name="Group 9037" transform="translate(-1058 -5043)">
    <circle id="Ellipse_1767" data-name="Ellipse 1767" cx="132" cy="132" r="132" transform="translate(1058 5043)" fill="#fefefe"/>
    <path id="Path_23313" data-name="Path 23313" d="M1.569-5.553h8.89V0H-10.559L-.149-15.29a28.319,28.319,0,0,0,2.391-4.034,7.136,7.136,0,0,0,.722-2.914A3.2,3.2,0,0,0,2.117-24.6a3.3,3.3,0,0,0-2.44-.847,2.871,2.871,0,0,0-2.764,1.706A8.579,8.579,0,0,0-3.71-19.25h-6.973a15.235,15.235,0,0,1,.486-5.64,7.762,7.762,0,0,1,2.266-3.7,9.579,9.579,0,0,1,3.474-1.917A14.792,14.792,0,0,1-.1-31.1q4.881,0,7.583,2.366a8.46,8.46,0,0,1,2.7,6.724q0,3.86-3.511,9.114Z" transform="translate(1187 5099)" fill="#90ff00"/>
    <path id="Union_6" data-name="Union 6" d="M14446.858,18088.613a1.861,1.861,0,0,1-1.86-1.863v-103.816a1.86,1.86,0,0,1,1.86-1.863h17.669v-5.209a1.862,1.862,0,0,1,1.859-1.861h31.17a1.859,1.859,0,0,1,1.859,1.861v5.209h17.67a1.859,1.859,0,0,1,1.858,1.863v103.816a1.86,1.86,0,0,1-1.858,1.863Zm1.858-3.725h66.515v-100.1h-15.815v1.486a5.17,5.17,0,0,1-2.215,4.125,7.8,7.8,0,0,1-4.65,1.461h-21.158a7.78,7.78,0,0,1-4.645-1.461,5.174,5.174,0,0,1-2.221-4.125v-1.486h-15.811Zm19.529-98.613c0,.877,1.348,1.867,3.146,1.867h21.158c1.8,0,3.146-.99,3.146-1.867v-8.557h-27.451Zm-6.1,75.9-4.635-4.252a1.86,1.86,0,0,1,2.511-2.744l3.007,2.754,5.663-8.887a1.858,1.858,0,1,1,3.131,2l-6.854,10.756a1.831,1.831,0,0,1-1.324.842,1.637,1.637,0,0,1-.24.016A1.875,1.875,0,0,1,14462.142,18062.176Zm16.3-3.332a1.862,1.862,0,0,1,0-3.725h27.5a1.862,1.862,0,0,1,0,3.725Zm-16.3-16.076-4.635-4.254a1.86,1.86,0,0,1,2.511-2.746l3.007,2.762,5.663-8.895a1.858,1.858,0,1,1,3.131,2l-6.854,10.76a1.863,1.863,0,0,1-1.324.844,1.959,1.959,0,0,1-.24.016A1.858,1.858,0,0,1,14462.142,18042.768Zm16.3-4.891a1.86,1.86,0,0,1,0-3.721h27.5a1.86,1.86,0,0,1,0,3.721Zm-16.3-14.521-4.635-4.25a1.86,1.86,0,0,1,2.511-2.744l3.007,2.756,5.663-8.889a1.859,1.859,0,1,1,3.131,2l-6.854,10.754a1.862,1.862,0,0,1-1.324.848,1.959,1.959,0,0,1-.24.014A1.862,1.862,0,0,1,14462.142,18023.355Zm16.3-4.887a1.862,1.862,0,0,1,0-3.725h27.5a1.862,1.862,0,0,1,0,3.725Z" transform="translate(-13295.113 -12849.441)" stroke="rgba(0,0,0,0)" stroke-miterlimit="10" stroke-width="1" fill="url(#linear-gradient)"/>
  </g>
</svg>
