<svg xmlns="http://www.w3.org/2000/svg" xmlns:xlink="http://www.w3.org/1999/xlink" width="264" height="264" viewBox="0 0 264 264">
  <defs>
    <linearGradient id="linear-gradient" x1="0.5" x2="0.5" y2="1" gradientUnits="objectBoundingBox">
      <stop offset="0" stop-color="#93ff00"/>
      <stop offset="0.577" stop-color="#a0f3bd"/>
      <stop offset="1" stop-color="#84ffe4"/>
    </linearGradient>
  </defs>
  <g id="Group_9038" data-name="Group 9038" transform="translate(-614 -5043)">
    <circle id="Ellipse_1768" data-name="Ellipse 1768" cx="132" cy="132" r="132" transform="translate(614 5043)" fill="#fefefe"/>
    <path id="Path_23314" data-name="Path 23314" d="M6.25-16.336a6.279,6.279,0,0,1,3.561,2.689A8.81,8.81,0,0,1,11.057-8.84,8.2,8.2,0,0,1,8.131-2.117Q5.2.274.05.274A15.623,15.623,0,0,1-4.557-.349,9.357,9.357,0,0,1-8.031-2.254a7.579,7.579,0,0,1-2.154-3.362,12.789,12.789,0,0,1-.523-4.868h6.873a5.47,5.47,0,0,0,.984,3.922A3.938,3.938,0,0,0,.3-5.279,3.639,3.639,0,0,0,3.1-6.363,4.052,4.052,0,0,0,4.109-9.239a3.707,3.707,0,0,0-1.146-2.9A4.865,4.865,0,0,0-.4-13.173H-2.167v-5.18H-.872q4.009,0,4.009-3.81a3.432,3.432,0,0,0-.884-2.44A3.225,3.225,0,0,0-.224-25.55a3.06,3.06,0,0,0-2.665,1.258,5.766,5.766,0,0,0-.772,3.673h-6.823q-.324-5.08,2.44-7.782t7.77-2.7q5.08,0,7.72,2.2a7.447,7.447,0,0,1,2.64,6.039Q10.085-17.93,6.25-16.336Z" transform="translate(746 5099)" fill="#90ff00"/>
    <g id="Group_8557" data-name="Group 8557" transform="translate(-650 4011.846)">
      <path id="Path_23306" data-name="Path 23306" d="M107.859,130.709H64.226a10.091,10.091,0,0,1-10.079-10.08V66.384A10.091,10.091,0,0,1,64.226,56.305h56.8a1.317,1.317,0,1,1,0,2.634h-56.8a7.454,7.454,0,0,0-7.446,7.446v54.245a7.454,7.454,0,0,0,7.446,7.446h43.633a1.317,1.317,0,1,1,0,2.634Z" transform="translate(1301.682 1076.074)" fill="url(#linear-gradient)"/>
      <path id="Path_23307" data-name="Path 23307" d="M70.708,105.411H12.591A10.091,10.091,0,0,1,2.511,95.331V14.748A10.091,10.091,0,0,1,12.591,4.669H85.854a1.317,1.317,0,0,1,0,2.634H12.591a7.454,7.454,0,0,0-7.446,7.446V95.331a7.454,7.454,0,0,0,7.446,7.446H70.708a1.317,1.317,0,1,1,0,2.634Z" transform="translate(1340.149 1114.542)" fill="url(#linear-gradient)"/>
      <path id="Rectangle_2037" data-name="Rectangle 2037" d="M.067-1.25H6.981A1.317,1.317,0,0,1,8.3.067V15.376a1.317,1.317,0,0,1-1.317,1.317H.067A1.317,1.317,0,0,1-1.25,15.376V.067A1.317,1.317,0,0,1,.067-1.25Zm5.6,2.634H1.384V14.059h4.28Z" transform="translate(1380.289 1149.762)" fill="url(#linear-gradient)"/>
      <path id="Rectangle_2038" data-name="Rectangle 2038" d="M.067-1.25H6.981A1.317,1.317,0,0,1,8.3.067V15.376a1.317,1.317,0,0,1-1.317,1.317H.067A1.317,1.317,0,0,1-1.25,15.376V.067A1.317,1.317,0,0,1,.067-1.25Zm5.6,2.634H1.384V14.059h4.28Z" transform="translate(1398.726 1149.762)" fill="url(#linear-gradient)"/>
      <path id="Path_23308" data-name="Path 23308" d="M185.427,233.624h-10.7a1.478,1.478,0,0,1-1.476-1.476v-7a6.828,6.828,0,1,1,13.656,0v7A1.478,1.478,0,0,1,185.427,233.624Zm-9.546-2.634h8.388v-5.847a4.194,4.194,0,1,0-8.388,0Z" transform="translate(1212.956 955.382)" fill="url(#linear-gradient)"/>
      <path id="Path_23309" data-name="Path 23309" d="M293.554,154.839h24.62a7.155,7.155,0,0,1,4.593,12.646,1.114,1.114,0,0,0-.406.8,1.261,1.261,0,0,0,.34.938,10.053,10.053,0,0,1,2.633,6.792v31.3a10.091,10.091,0,0,1-10.079,10.079H296.473a10.091,10.091,0,0,1-10.079-10.079v-31.3a10.059,10.059,0,0,1,2.633-6.8,1.259,1.259,0,0,0,.339-.936,1.111,1.111,0,0,0-.4-.793,7.155,7.155,0,0,1,4.593-12.646Zm21.7,59.918a7.454,7.454,0,0,0,7.445-7.446v-31.3a7.425,7.425,0,0,0-1.944-5.016,3.925,3.925,0,0,1-1.023-2.888,3.74,3.74,0,0,1,1.341-2.638,4.522,4.522,0,0,0-2.9-7.995h-24.62a4.521,4.521,0,0,0-2.9,7.995,3.737,3.737,0,0,1,1.339,2.636,3.923,3.923,0,0,1-1.022,2.886,7.431,7.431,0,0,0-1.945,5.02v31.3a7.454,7.454,0,0,0,7.446,7.446Z" transform="translate(1128.666 1002.669)" fill="url(#linear-gradient)"/>
      <path id="Path_23310" data-name="Path 23310" d="M375.5,266.545a4.7,4.7,0,0,1-4.692-4.692V235.547a1.317,1.317,0,0,1,2.634,0v26.305a2.058,2.058,0,1,0,4.116,0V235.547a1.317,1.317,0,0,1,2.634,0v26.305A4.7,4.7,0,0,1,375.5,266.545Z" transform="translate(1065.777 943.525)" fill="url(#linear-gradient)"/>
      <path id="Path_23311" data-name="Path 23311" d="M322.564,266.545a4.7,4.7,0,0,1-4.692-4.692V235.547a1.317,1.317,0,1,1,2.634,0v26.305a2.058,2.058,0,1,0,4.116,0V235.547a1.317,1.317,0,1,1,2.634,0v26.305A4.7,4.7,0,0,1,322.564,266.545Z" transform="translate(1105.215 943.525)" fill="url(#linear-gradient)"/>
      <path id="Line_239" data-name="Line 239" d="M16.943,1.384H.067a1.317,1.317,0,1,1,0-2.634H16.943a1.317,1.317,0,1,1,0,2.634Z" transform="translate(1426.024 1169.129)" fill="url(#linear-gradient)"/>
      <path id="Path_23312" data-name="Path 23312" d="M346.15,2.511h0a1.317,1.317,0,0,1,1.1.59l4.362,6.585a1.317,1.317,0,0,1,.219.727V42.676a1.317,1.317,0,0,1-1.317,1.317h-8.724a1.317,1.317,0,0,1-1.317-1.317V10.413a1.317,1.317,0,0,1,.219-.727L345.052,3.1A1.317,1.317,0,0,1,346.15,2.511Zm3.045,8.3-3.045-4.6-3.045,4.6V41.359h6.09Z" transform="translate(1088.379 1116.149)" fill="url(#linear-gradient)"/>
      <path id="Line_240" data-name="Line 240" d="M.067,18.26A1.317,1.317,0,0,1-1.25,16.943V.067a1.317,1.317,0,1,1,2.634,0V16.943A1.317,1.317,0,0,1,.067,18.26Z" transform="translate(1434.462 1119.91)" fill="url(#linear-gradient)"/>
    </g>
  </g>
</svg>
