<svg xmlns="http://www.w3.org/2000/svg" xmlns:xlink="http://www.w3.org/1999/xlink" width="87" height="149" viewBox="0 0 87 149">
  <defs>
    <clipPath id="clip-path">
      <rect id="Rectangle_2317" data-name="Rectangle 2317" width="87" height="149" transform="translate(0 427)" fill="#fff" stroke="#707070" stroke-width="1"/>
    </clipPath>
    <radialGradient id="radial-gradient" cx="0.561" cy="0.059" r="1.641" gradientTransform="translate(0.65 -0.498) rotate(93.076)" gradientUnits="objectBoundingBox">
      <stop offset="0" stop-color="#fff"/>
      <stop offset="0.59" stop-color="#f5f5f5"/>
      <stop offset="1" stop-color="#efefef"/>
    </radialGradient>
    <filter id="Subtraction_2" x="-99.5" y="-31.5" width="224" height="224" filterUnits="userSpaceOnUse">
      <feOffset dy="6" input="SourceAlpha"/>
      <feGaussianBlur stdDeviation="12.5" result="blur"/>
      <feFlood flood-color="#fff" flood-opacity="0.22"/>
      <feComposite operator="in" in2="blur"/>
      <feComposite in="SourceGraphic"/>
    </filter>
    <linearGradient id="linear-gradient" x1="0.5" x2="0.5" y2="1" gradientUnits="objectBoundingBox">
      <stop offset="0" stop-color="#93ff00"/>
      <stop offset="0.577" stop-color="#a0f3bd"/>
      <stop offset="1" stop-color="#84ffe4"/>
    </linearGradient>
    <filter id="Subtraction_1" x="-70.6" y="-6.6" width="167.2" height="167.2" filterUnits="userSpaceOnUse">
      <feOffset dy="3" input="SourceAlpha"/>
      <feGaussianBlur stdDeviation="3" result="blur-2"/>
      <feFlood flood-opacity="0.102"/>
      <feComposite operator="in" in2="blur-2"/>
      <feComposite in="SourceGraphic"/>
    </filter>
    <radialGradient id="radial-gradient-2" cx="0.563" cy="0.095" r="4.017" gradientTransform="translate(0.814 -0.418) rotate(106.364)" gradientUnits="objectBoundingBox">
      <stop offset="0" stop-color="#fff"/>
      <stop offset="0.659" stop-color="#e4e4e4"/>
      <stop offset="1" stop-color="#efefef"/>
    </radialGradient>
    <filter id="Ellipse_52" x="-72" y="-4" width="170" height="170" filterUnits="userSpaceOnUse">
      <feOffset dy="6" input="SourceAlpha"/>
      <feGaussianBlur stdDeviation="8" result="blur-3"/>
      <feFlood flood-opacity="0.2"/>
      <feComposite operator="in" in2="blur-3"/>
      <feComposite in="SourceGraphic"/>
    </filter>
    <linearGradient id="linear-gradient-2" x2="1.372" y2="0.673" xlink:href="#linear-gradient"/>
    <filter id="Path_69" x="29.5" y="46.615" width="34.55" height="58.598" filterUnits="userSpaceOnUse">
      <feOffset dy="1" input="SourceAlpha"/>
      <feGaussianBlur stdDeviation="1.5" result="blur-4"/>
      <feFlood flood-opacity="0.09"/>
      <feComposite operator="in" in2="blur-4"/>
      <feComposite in="SourceGraphic"/>
    </filter>
  </defs>
  <g id="Mask_Group_33" data-name="Mask Group 33" transform="translate(0 -427)" clip-path="url(#clip-path)">
    <g id="Group_8520" data-name="Group 8520">
      <g transform="matrix(1, 0, 0, 1, 0, 427)" filter="url(#Subtraction_2)">
        <path id="Subtraction_2-2" data-name="Subtraction 2" d="M74.5,149a75.047,75.047,0,0,1-15.014-1.514,74.089,74.089,0,0,1-26.639-11.21A74.717,74.717,0,0,1,5.855,103.5,74.126,74.126,0,0,1,1.514,89.515a75.23,75.23,0,0,1,0-30.029,74.095,74.095,0,0,1,11.21-26.639A74.72,74.72,0,0,1,45.5,5.855,74.128,74.128,0,0,1,59.486,1.514a75.224,75.224,0,0,1,30.028,0,74.093,74.093,0,0,1,26.64,11.21A74.72,74.72,0,0,1,143.145,45.5a74.122,74.122,0,0,1,4.341,13.984,75.225,75.225,0,0,1,0,30.029,74.088,74.088,0,0,1-11.21,26.639A74.716,74.716,0,0,1,103.5,143.145a74.125,74.125,0,0,1-13.985,4.341A75.05,75.05,0,0,1,74.5,149Zm.326-129.48A55.306,55.306,0,1,0,130.13,74.825,55.368,55.368,0,0,0,74.825,19.52Z" transform="translate(-62)" fill="url(#radial-gradient)"/>
      </g>
      <g transform="matrix(1, 0, 0, 1, 0, 427)" filter="url(#Subtraction_1)">
        <g id="Subtraction_1-2" data-name="Subtraction 1" transform="translate(-61)" fill="url(#linear-gradient)">
          <path d="M 73.9998779296875 147.5 C 69.01268005371094 147.5 64.02870178222656 146.9976043701172 59.18642044067383 146.0067596435547 C 54.46772003173828 145.0411224365234 49.8260612487793 143.6002807617188 45.39039993286133 141.7242584228516 C 41.03548049926758 139.8821868896484 36.83507919311523 137.6022186279297 32.90589904785156 134.9477386474609 C 29.01417922973633 132.3185424804688 25.35421943664551 129.2988128662109 22.02770042419434 125.9724578857422 C 18.70170021057129 122.6463623046875 15.68204021453857 118.986442565918 13.05261993408203 115.0943832397461 C 10.39863967895508 111.166259765625 8.118639945983887 106.9657821655273 6.275959968566895 102.6095581054688 C 4.400020122528076 98.1746826171875 2.959100008010864 93.53304290771484 1.993199944496155 88.81358337402344 C 1.002380013465881 83.97090148925781 0.5 78.98697662353516 0.5 74.00028228759766 C 0.5 69.01361846923828 1.002380013465881 64.02967834472656 1.993219971656799 59.18692016601562 C 2.959100008010864 54.46749877929688 4.400020122528076 49.82583999633789 6.275959968566895 45.39089965820312 C 8.118020057678223 41.03565979003906 10.39799976348877 36.83514022827148 13.05259990692139 32.90602111816406 C 15.68282032012939 29.01308059692383 18.70248031616211 25.35312080383301 22.02771949768066 22.02783966064453 C 25.35429954528809 18.70136070251465 29.01425933837891 15.68159961700439 32.90589904785156 13.05245971679688 C 36.8349609375 10.39799976348877 41.03535842895508 8.118020057678223 45.39041900634766 6.275839805603027 C 49.82614135742188 4.399759769439697 54.46778106689453 2.958899974822998 59.18642044067383 1.993299961090088 C 64.02867889404297 1.002419948577881 69.01264190673828 0.5 73.9998779296875 0.5 C 78.98696136474609 0.5 83.97084045410156 1.002419948577881 88.81310272216797 1.993299961090088 C 93.53189849853516 2.958879947662354 98.17357635498047 4.399720191955566 102.6092224121094 6.275839805603027 C 106.9638595581055 8.11769962310791 111.164421081543 10.39768028259277 115.0942230224609 13.05245971679688 C 118.987060546875 15.6826000213623 122.6469802856445 18.70236015319824 125.972297668457 22.0278205871582 C 129.2986755371094 25.35429954528809 132.3184661865234 29.01424026489258 134.9477844238281 32.90602111816406 C 137.6024932861328 36.83562088012695 139.8824768066406 41.03614044189453 141.7243957519531 45.39089965820312 C 143.6004638671875 49.82683944702148 145.041259765625 54.46852111816406 146.0068054199219 59.18693923950195 C 146.9976196289062 64.02955627441406 147.5 69.01348114013672 147.5 74.00028228759766 C 147.5 78.98709869384766 146.9976196289062 83.97102355957031 146.0067749023438 88.81362152099609 C 145.0412750244141 93.531982421875 143.6004638671875 98.17363739013672 141.7243957519531 102.6095962524414 C 139.8824768066406 106.9643402099609 137.6024780273438 111.1648406982422 134.94775390625 115.0943832397461 C 132.3182067871094 118.9864807128906 129.2984161376953 122.6464004516602 125.972297668457 125.9724578857422 C 122.6469421386719 129.2979431152344 118.9870223999023 132.3176574707031 115.0942001342773 134.94775390625 C 111.1648178100586 137.6022796630859 106.9642562866211 139.8822174072266 102.6092224121094 141.7242584228516 C 98.1734619140625 143.6003570556641 93.53177642822266 145.0412139892578 88.81310272216797 146.0067749023438 C 83.97081756591797 146.9976043701172 78.98692321777344 147.5 73.9998779296875 147.5 Z M 74.32328033447266 7.255819797515869 C 37.34214019775391 7.255819797515869 7.255799770355225 37.34207916259766 7.255799770355225 74.32309722900391 C 7.255799770355225 111.3044586181641 37.34214019775391 141.3909759521484 74.32328033447266 141.3909759521484 C 111.3042221069336 141.3909759521484 141.3903961181641 111.3044586181641 141.3903961181641 74.32309722900391 C 141.3903961181641 37.34207916259766 111.3042221069336 7.255819797515869 74.32328033447266 7.255819797515869 Z" stroke="none"/>
          <path d="M 73.9998779296875 147 C 78.95332336425781 147 83.90350341796875 146.5010223388672 88.71286010742188 145.5169219970703 C 93.39922332763672 144.5579833984375 98.00910186767578 143.1269989013672 102.414436340332 141.2637634277344 C 106.7397384643555 139.4342956542969 110.9116592407227 137.1699066162109 114.8142776489258 134.5334625244141 C 118.6807403564453 131.9211578369141 122.3158798217773 128.921875 125.6187591552734 125.618896484375 C 128.92236328125 122.3153381347656 131.9217071533203 118.6801986694336 134.5334625244141 114.8144836425781 C 137.1701049804688 110.9116821289062 139.4345397949219 106.7398376464844 141.2638854980469 102.4148406982422 C 143.1271057128906 98.00926208496094 144.5580444335938 93.39942169189453 145.5169372558594 88.71337890625 C 146.5010223388672 83.90371704101562 147 78.95349884033203 147 74.00028228759766 C 147 69.04708099365234 146.5010223388672 64.09686279296875 145.5169372558594 59.28718185424805 C 144.5580444335938 54.60108184814453 143.1271057128906 49.99121856689453 141.2639007568359 45.58567810058594 C 139.4345550537109 41.26065826416016 137.1701202392578 37.08876037597656 134.5334625244141 33.18592071533203 C 131.9219665527344 29.32052040100098 128.9226226806641 25.68534088134766 125.6187362670898 22.38138008117676 C 122.31591796875 19.07842063903809 118.680778503418 16.07909965515137 114.814338684082 13.4667797088623 C 110.9112777709961 10.83008003234863 106.7393417358398 8.565640449523926 102.414436340332 6.736340045928955 C 98.00921630859375 4.873079776763916 93.39933776855469 3.442100048065186 88.71286010742188 2.483160018920898 C 83.90351867675781 1.498999953269958 78.95336151123047 1 73.9998779296875 1 C 69.04624176025391 1 64.09600067138672 1.498999953269958 59.28665924072266 2.483160018920898 C 54.60036087036133 3.442140102386475 49.99050140380859 4.873119831085205 45.58522033691406 6.736340045928955 C 41.25988006591797 8.565939903259277 37.08811950683594 10.8303804397583 33.18579864501953 13.46675968170166 C 29.32052040100098 16.07810020446777 25.68534088134766 19.07741928100586 22.38128089904785 22.38138008117676 C 19.07854080200195 25.68417930603027 16.07932090759277 29.31936073303223 13.46691989898682 33.18592071533203 C 10.83040046691895 37.08829879760742 8.565939903259277 41.26018142700195 6.736460208892822 45.58570098876953 C 4.873380184173584 49.99023818969727 3.442339897155762 54.60007858276367 2.483059883117676 59.28713989257812 C 1.498980045318604 64.09700012207031 1 69.04721832275391 1 74.00028228759766 C 1 78.95339965820312 1.498980045318604 83.90360260009766 2.483059883117676 88.71334075927734 C 3.442339897155762 93.40045928955078 4.873380184173584 98.01027679443359 6.736460208892822 102.4147796630859 C 8.566559791564941 106.7412414550781 10.83102035522461 110.9131011962891 13.46691989898682 114.8144836425781 C 16.07854080200195 118.6801605224609 19.07776069641113 122.315299987793 22.38124084472656 125.618896484375 C 25.68526077270508 128.9227600097656 29.3204402923584 131.9220428466797 33.18579864501953 134.533447265625 C 37.08824157714844 137.1698455810547 41.2599983215332 139.4342651367188 45.58517837524414 141.2637329101562 C 49.99044036865234 143.1269226074219 54.60029983520508 144.5578765869141 59.28664016723633 145.5169219970703 C 64.09602355957031 146.5010223388672 69.04627990722656 147 73.9998779296875 147 M 74.32328033447266 6.755819797515869 C 111.5799179077148 6.755819797515869 141.8903961181641 37.06637954711914 141.8903961181641 74.32309722900391 C 141.8903961181641 111.5801620483398 111.5799179077148 141.8909759521484 74.32328033447266 141.8909759521484 C 37.06644058227539 141.8909759521484 6.755799770355225 111.5801620483398 6.755799770355225 74.32309722900391 C 6.755799770355225 37.06637954711914 37.06644058227539 6.755819797515869 74.32328033447266 6.755819797515869 M 73.9998779296875 148 C 68.97898101806641 148 63.96134185791016 147.4941864013672 59.086181640625 146.4966125488281 C 54.33507919311523 145.5243377685547 49.66165924072266 144.0736236572266 45.19564056396484 142.1847534179688 C 40.81106185913086 140.3301391601562 36.58193969726562 138.0346221923828 32.62599945068359 135.362060546875 C 28.7078800201416 132.7150268554688 25.02318000793457 129.6748809814453 21.67416000366211 126.3260192871094 C 18.32596015930176 122.9777221679688 15.28573989868164 119.2929992675781 12.6382999420166 115.3742828369141 C 9.965539932250977 111.4183578491211 7.670279979705811 107.1892395019531 5.815460205078125 102.8043594360352 C 3.926559925079346 98.33879852294922 2.475820064544678 93.66535949707031 1.503360033035278 88.91384124755859 C 0.5058599710464478 84.03849792480469 0 79.02084350585938 0 74.00028228759766 C 0 68.979736328125 0.5058599710464478 63.96210098266602 1.503360033035278 59.08670043945312 C 2.475820064544678 54.33517837524414 3.926559925079346 49.66172027587891 5.815460205078125 45.19612121582031 C 7.670040130615234 40.811279296875 9.965539932250977 36.58211898803711 12.6382999420166 32.6260986328125 C 15.28600025177002 28.70727920532227 18.32596015930176 25.02253913879395 21.67416000366211 21.67428016662598 C 25.02318000793457 18.32538032531738 28.7078800201416 15.28518009185791 32.62599945068359 12.63813972473145 C 36.58193969726562 9.965519905090332 40.81106185913086 7.670000076293945 45.19564056396484 5.815340042114258 C 49.66165924072266 3.926440000534058 54.33507919311523 2.475699901580811 59.086181640625 1.503460049629211 C 63.96134185791016 0.505840003490448 68.97898101806641 0 73.9998779296875 0 C 79.02066040039062 0 84.03817749023438 0.505840003490448 88.91333770751953 1.503460049629211 C 93.66468048095703 2.475680112838745 98.33809661865234 3.926419973373413 102.8040008544922 5.815340042114258 C 107.1886978149414 7.669919967651367 111.4178009033203 9.965459823608398 115.3741226196289 12.63813972473145 C 119.29248046875 15.2855396270752 122.9774398803711 18.32571983337402 126.3258590698242 21.67428016662598 C 129.6744232177734 25.02293968200684 132.7147369384766 28.70766067504883 135.3620758056641 32.6260986328125 C 138.0345764160156 36.5820198059082 140.3302154541016 40.81118011474609 142.1849060058594 45.19612121582031 C 144.0736846923828 49.66213989257812 145.5244445800781 54.33563995361328 146.4966430664062 59.08670043945312 C 147.494140625 63.96195983886719 148 68.97962188720703 148 74.00028228759766 C 148 79.02095794677734 147.494140625 84.03861999511719 146.4966430664062 88.91384124755859 C 145.5244445800781 93.66490173339844 144.0736846923828 98.33836364746094 142.1849060058594 102.8043594360352 C 140.3302154541016 107.1892776489258 138.0345764160156 111.4184188842773 135.3620758056641 115.3742828369141 C 132.7147369384766 119.2926788330078 129.6745452880859 122.9773788452148 126.3258590698242 126.3260192871094 C 122.9774398803711 129.6745452880859 119.29248046875 132.7147064208984 115.3741226196289 135.362060546875 C 111.4179382324219 138.0346832275391 107.1886978149414 140.3301849365234 102.8040008544922 142.1847534179688 C 98.33809661865234 144.0736236572266 93.66468048095703 145.5243835449219 88.91333770751953 146.4966125488281 C 84.03817749023438 147.4941864013672 79.02066040039062 148 73.9998779296875 148 Z M 74.32328033447266 7.755819797515869 C 37.61764144897461 7.755819797515869 7.755799770355225 37.61777877807617 7.755799770355225 74.32309722900391 C 7.755799770355225 111.0287399291992 37.61764144897461 140.8909759521484 74.32328033447266 140.8909759521484 C 111.0285568237305 140.8909759521484 140.8903961181641 111.0287399291992 140.8903961181641 74.32309722900391 C 140.8903961181641 37.61777877807617 111.0285568237305 7.755819797515869 74.32328033447266 7.755819797515869 Z" stroke="none" fill="#fff"/>
        </g>
      </g>
      <g transform="matrix(1, 0, 0, 1, 0, 427)" filter="url(#Ellipse_52)">
        <circle id="Ellipse_52-2" data-name="Ellipse 52" cx="61" cy="61" r="61" transform="translate(-48 14)" fill="url(#radial-gradient-2)"/>
      </g>
      <g id="Path_68" data-name="Path 68" transform="translate(-58.326 429.963)" fill="none" opacity="0.65">
        <path d="M71.518,0A71.518,71.518,0,1,1,0,71.518,71.518,71.518,0,0,1,71.518,0Z" stroke="none"/>
        <path d="M 71.51750946044922 4 C 62.40094757080078 4 53.5592041015625 5.784576416015625 45.23787689208984 9.304214477539062 C 41.23805236816406 10.99600219726562 37.37989807128906 13.09016418457031 33.77061462402344 15.52855682373047 C 30.19459533691406 17.94447326660156 26.83172607421875 20.71912384033203 23.77542114257812 23.77540588378906 C 20.7191162109375 26.83171081542969 17.94446563720703 30.194580078125 15.52854919433594 33.77062225341797 C 13.09016418457031 37.37990570068359 10.99598693847656 41.238037109375 9.30419921875 45.23786163330078 C 5.784576416015625 53.55918884277344 3.999984741210938 62.40095520019531 3.999984741210938 71.51751708984375 C 3.999984741210938 80.63407897949219 5.784576416015625 89.47582244873047 9.30419921875 97.79714965820312 C 10.99598693847656 101.7969741821289 13.09016418457031 105.6551208496094 15.52854919433594 109.264404296875 C 17.94446563720703 112.8404312133789 20.7191162109375 116.2033004760742 23.77542114257812 119.2596054077148 C 26.83172607421875 122.3159103393555 30.19459533691406 125.0905609130859 33.77061462402344 127.5064697265625 C 37.37989807128906 129.9448699951172 41.23805236816406 132.0390319824219 45.23787689208984 133.7308197021484 C 53.5592041015625 137.2504577636719 62.40094757080078 139.0350341796875 71.51750946044922 139.0350341796875 C 80.63407897949219 139.0350341796875 89.47581481933594 137.2504577636719 97.79713439941406 133.7308197021484 C 101.7969665527344 132.0390319824219 105.6551208496094 129.9448699951172 109.264404296875 127.5064697265625 C 112.8404235839844 125.0905609130859 116.2032928466797 122.3159103393555 119.2595977783203 119.2596054077148 C 122.3158798217773 116.2033004760742 125.0905303955078 112.8404312133789 127.5064468383789 109.264404296875 C 129.9448394775391 105.6551208496094 132.0390014648438 101.7969741821289 133.7307891845703 97.79714965820312 C 137.2504272460938 89.47582244873047 139.0350036621094 80.63407897949219 139.0350036621094 71.51751708984375 C 139.0350036621094 62.40095520019531 137.2504272460938 53.55918884277344 133.7307891845703 45.23786163330078 C 132.0390014648438 41.238037109375 129.9448394775391 37.37990570068359 127.5064468383789 33.77060699462891 C 125.0905303955078 30.194580078125 122.3158798217773 26.83171081542969 119.2595977783203 23.77540588378906 C 116.2032928466797 20.71912384033203 112.8404235839844 17.94447326660156 109.264404296875 15.52855682373047 C 105.6551208496094 13.09016418457031 101.7969665527344 10.99600219726562 97.79713439941406 9.304214477539062 C 89.47581481933594 5.784576416015625 80.63407897949219 4 71.51750946044922 4 M 71.51750946044922 0 C 111.0155334472656 0 143.0350036621094 32.01947021484375 143.0350036621094 71.51751708984375 C 143.0350036621094 111.0155334472656 111.0155334472656 143.0350341796875 71.51750946044922 143.0350341796875 C 32.01948547363281 143.0350341796875 -1.52587890625e-05 111.0155334472656 -1.52587890625e-05 71.51751708984375 C -1.52587890625e-05 32.01947021484375 32.01948547363281 0 71.51750946044922 0 Z" stroke="none" fill="#b8ffe0"/>
      </g>
      <g transform="matrix(1, 0, 0, 1, 0, 427)" filter="url(#Path_69)">
        <path id="Path_69-2" data-name="Path 69" d="M0,26.678H13.9L6.763,49.6,25.55,20.666H9.769L15.406,0Z" transform="translate(34 50.11)" fill="url(#linear-gradient-2)"/>
      </g>
    </g>
  </g>
</svg>
