<svg id="Group_8932" data-name="Group 8932" xmlns="http://www.w3.org/2000/svg" xmlns:xlink="http://www.w3.org/1999/xlink" width="33.5" height="33.5" viewBox="0 0 33.5 33.5">
  <defs>
    <clipPath id="clip-path">
      <rect id="Rectangle_2351" data-name="Rectangle 2351" width="33.5" height="33.5" fill="none" stroke="#9b9b9b" stroke-width="1.5"/>
    </clipPath>
  </defs>
  <g id="Group_8931" data-name="Group 8931" clip-path="url(#clip-path)">
    <path id="Path_23462" data-name="Path 23462" d="M388.377,401.25a2.126,2.126,0,0,1-2.127,2.127" transform="translate(-358.865 -372.802)" fill="none" stroke="#9b9b9b" stroke-linecap="round" stroke-linejoin="round" stroke-width="1.5"/>
    <line id="Line_427" data-name="Line 427" y1="17.016" transform="translate(29.512 11.433)" fill="none" stroke="#9b9b9b" stroke-linecap="round" stroke-linejoin="round" stroke-width="1.5"/>
    <path id="Path_23463" data-name="Path 23463" d="M371.25,131.25a2.126,2.126,0,0,0,2.127,2.127" transform="translate(-344.929 -121.944)" fill="none" stroke="#9b9b9b" stroke-linecap="round" stroke-miterlimit="10" stroke-width="1.5"/>
    <path id="Path_23464" data-name="Path 23464" d="M433.377,131.25a2.126,2.126,0,0,1-2.127,2.127" transform="translate(-400.675 -121.944)" fill="none" stroke="#9b9b9b" stroke-linecap="round" stroke-miterlimit="10" stroke-width="1.5"/>
    <line id="Line_428" data-name="Line 428" x2="2.127" transform="translate(28.448 11.433)" fill="none" stroke="#9b9b9b" stroke-linecap="round" stroke-miterlimit="10" stroke-width="1.5"/>
    <line id="Line_429" data-name="Line 429" y2="4.254" transform="translate(26.321 5.052)" fill="none" stroke="#9b9b9b" stroke-linecap="round" stroke-miterlimit="10" stroke-width="1.5"/>
    <line id="Line_430" data-name="Line 430" y2="4.254" transform="translate(32.702 5.052)" fill="none" stroke="#9b9b9b" stroke-linecap="round" stroke-miterlimit="10" stroke-width="1.5"/>
    <line id="Line_431" data-name="Line 431" x2="6.381" transform="translate(26.321 5.052)" fill="none" stroke="#9b9b9b" stroke-linecap="round" stroke-miterlimit="10" stroke-width="1.5"/>
    <line id="Line_432" data-name="Line 432" y2="4.254" transform="translate(27.385 0.798)" fill="none" stroke="#9b9b9b" stroke-linecap="round" stroke-miterlimit="10" stroke-width="1.5"/>
    <line id="Line_433" data-name="Line 433" y2="4.254" transform="translate(31.639 0.798)" fill="none" stroke="#9b9b9b" stroke-linecap="round" stroke-miterlimit="10" stroke-width="1.5"/>
    <line id="Line_434" data-name="Line 434" x2="3.19" transform="translate(17.813 17.813)" fill="none" stroke="#9b9b9b" stroke-linecap="round" stroke-linejoin="round" stroke-width="1.5"/>
    <path id="Path_23465" data-name="Path 23465" d="M326.25,401.25a2.126,2.126,0,0,0,2.127,2.127" transform="translate(-303.119 -372.802)" fill="none" stroke="#9b9b9b" stroke-linecap="round" stroke-linejoin="round" stroke-width="1.5"/>
    <line id="Line_435" data-name="Line 435" y1="8.508" transform="translate(23.131 19.94)" fill="none" stroke="#9b9b9b" stroke-linecap="round" stroke-linejoin="round" stroke-width="1.5"/>
    <path id="Path_23466" data-name="Path 23466" d="M298.377,253.377a2.126,2.126,0,0,0-2.127-2.127" transform="translate(-275.246 -233.437)" fill="none" stroke="#9b9b9b" stroke-linecap="round" stroke-linejoin="round" stroke-width="1.5"/>
    <line id="Line_436" data-name="Line 436" x2="2.127" transform="translate(25.258 30.575)" fill="none" stroke="#9b9b9b" stroke-linecap="round" stroke-linejoin="round" stroke-width="1.5"/>
    <path id="Path_23467" data-name="Path 23467" d="M12.313,11.25a1.063,1.063,0,0,0-1.063,1.063V42.091a1.063,1.063,0,0,0,1.063,1.063H27.2a1.063,1.063,0,0,0,1.063-1.063V12.313A1.063,1.063,0,0,0,27.2,11.25" transform="translate(-10.452 -10.452)" fill="none" stroke="#9b9b9b" stroke-linecap="round" stroke-linejoin="round" stroke-width="1.5"/>
    <line id="Line_437" data-name="Line 437" x2="14.889" transform="translate(1.861 0.798)" fill="none" stroke="#9b9b9b" stroke-linecap="round" stroke-linejoin="round" stroke-width="1.5"/>
    <line id="Line_438" data-name="Line 438" x1="2.127" y2="4.254" transform="translate(7.179 12.496)" fill="none" stroke="#9b9b9b" stroke-linecap="round" stroke-linejoin="round" stroke-width="1.5"/>
    <line id="Line_439" data-name="Line 439" x1="4.254" transform="translate(7.179 16.75)" fill="none" stroke="#9b9b9b" stroke-linecap="round" stroke-linejoin="round" stroke-width="1.5"/>
    <line id="Line_440" data-name="Line 440" y1="4.254" x2="2.127" transform="translate(9.306 16.75)" fill="none" stroke="#9b9b9b" stroke-linecap="round" stroke-linejoin="round" stroke-width="1.5"/>
  </g>
</svg>
