<svg xmlns="http://www.w3.org/2000/svg" xmlns:xlink="http://www.w3.org/1999/xlink" width="20.864" height="25.962" viewBox="0 0 20.864 25.962">
  <defs>
    <linearGradient id="linear-gradient" x1="0.954" x2="0.108" y2="2.445" gradientUnits="objectBoundingBox">
      <stop offset="0" stop-color="#93ff00"/>
      <stop offset="0.312" stop-color="#a0f3bd"/>
      <stop offset="1" stop-color="#84ffe4"/>
    </linearGradient>
  </defs>
  <g id="Group_8925" data-name="Group 8925" transform="translate(-667.788 -1317.906)">
    <path id="Union_5" data-name="Union 5" d="M10.424,25.946a.515.515,0,0,1-.347-.135c-3.978-3.552-6.316-6.03-7.82-8.274a12.117,12.117,0,0,1-2.245-6.49L0,11.03l.011-.015C0,10.84,0,10.663,0,10.486c0-.318.016-.634.069-1.211a10.25,10.25,0,0,1,2.986-6.2,10.4,10.4,0,0,1,14.755,0,10.45,10.45,0,0,1,3.054,7.415,12.057,12.057,0,0,1-2.256,7.051c-1.5,2.243-3.842,4.722-7.816,8.274a.53.53,0,0,1-.346.135.113.113,0,0,1-.012.016ZM20.323,11.03ZM.211,10.73l.124-.177a1.756,1.756,0,0,1-.3-.046C.068,10.544.128,10.621.211,10.73Z" transform="translate(667.788 1317.906)" fill="url(#linear-gradient)"/>
    <path id="Path_69" data-name="Path 69" d="M0,9H4.688L2.281,16.725,8.616,6.969H3.294L5.195,0Z" transform="translate(673.913 1320.479)" fill="#fff"/>
  </g>
</svg>
